<?xml version="1.0" standalone="no"?>
<!DOCTYPE svg PUBLIC "-//W3C//DTD SVG 20010904//EN"
 "http://www.w3.org/TR/2001/REC-SVG-20010904/DTD/svg10.dtd">
<svg version="1.0" xmlns="http://www.w3.org/2000/svg"
 width="1024.000000pt" height="1024.000000pt" viewBox="0 0 1024.000000 1024.000000"
 preserveAspectRatio="xMidYMid meet">
<metadata>
Created by potrace 1.14, written by Peter Selinger 2001-2017
</metadata>
<g transform="translate(0.000000,1024.000000) scale(0.100000,-0.100000)"
fill="#000000" stroke="none">
<path d="M0 5120 l0 -5120 5120 0 5120 0 0 5029 c0 3990 -3 5030 -13 5034 -9
4 -9 6 1 6 6 1 12 13 12 27 0 19 -4 25 -15 20 -8 -3 -15 -2 -15 2 0 5 -12 13
-27 19 l-28 11 27 1 c15 1 30 -4 33 -9 11 -18 23 -1 20 27 -1 16 -7 39 -12 52
-8 20 -11 21 -16 8 -3 -9 -2 -19 3 -22 6 -4 10 -15 10 -25 0 -17 -4 -15 -30
10 -30 29 -60 39 -60 20 0 -5 -8 -6 -17 -3 -12 5 -15 2 -10 -10 3 -9 2 -17 -3
-17 -6 0 -10 7 -10 16 0 8 -4 12 -10 9 -5 -3 -10 -1 -10 4 0 6 5 11 10 11 6 0
10 4 10 10 0 5 -7 7 -15 4 -8 -4 -15 -13 -15 -21 0 -8 -4 -12 -10 -8 -5 3 -7
11 -4 18 3 8 -8 13 -35 14 -30 1 -41 -3 -44 -15 -4 -15 -5 -15 -6 0 -1 17
-254 18 -4981 18 l-4980 0 0 -5120z m10009 5067 c1 -5 -3 -5 -9 -2 -5 3 -10
16 -9 28 0 21 1 21 9 2 5 -11 9 -24 9 -28z m23 -12 c-8 -15 -10 -13 -14 14 -4
28 -3 30 10 18 10 -11 11 -20 4 -32z m132 19 c9 -24 7 -31 -9 -38 -16 -6 -16
14 0 26 6 5 5 8 -2 8 -7 0 -13 5 -13 10 0 16 17 12 24 -6z m-268 -14 c0 -12
-4 -16 -9 -11 -5 5 -6 14 -3 20 10 15 12 14 12 -9z m204 -22 c0 -5 -7 -8 -15
-8 -8 0 -15 2 -15 4 0 2 -3 12 -6 21 -6 15 -4 15 15 4 11 -8 21 -17 21 -21z
m30 -3 c0 -18 -5 -25 -19 -25 -10 0 -21 -7 -25 -15 -3 -8 -13 -15 -23 -14 -12
0 -13 2 -5 6 21 8 62 49 62 62 0 6 2 11 5 11 3 0 5 -11 5 -25z m-110 -20 c0
-8 -4 -15 -10 -15 -5 0 -7 7 -4 15 4 8 8 15 10 15 2 0 4 -7 4 -15z m123 -45
c3 -11 1 -20 -4 -20 -5 0 -9 9 -9 20 0 11 2 20 4 20 2 0 6 -9 9 -20z m-116 4
c-3 -3 -12 -4 -19 -1 -8 3 -5 6 6 6 11 1 17 -2 13 -5z m84 -12 c-11 -4 -11 -6
0 -13 11 -7 11 -9 -2 -9 -9 0 -22 6 -28 14 -9 11 -6 13 16 13 16 0 22 -2 14
-5z m39 -42 c0 -5 -4 -10 -10 -10 -5 0 -10 -8 -10 -17 0 -13 -3 -14 -11 -6 -8
8 -8 15 2 27 16 18 29 20 29 6z m-122 -461 c-3 -8 -7 -3 -11 10 -4 17 -3 21 5
13 5 -5 8 -16 6 -23z m-4510 -2183 c359 -76 675 -228 969 -465 223 -180 444
-465 575 -741 91 -190 161 -423 192 -641 16 -109 21 -347 10 -458 l-7 -61 -51
0 c-100 0 -93 -13 -88 188 8 340 -53 612 -209 925 -180 362 -459 666 -779 849
-275 158 -523 238 -830 269 -121 12 -327 7 -440 -11 -200 -33 -461 -121 -640
-217 -380 -204 -692 -541 -874 -943 -55 -121 -121 -328 -153 -477 -25 -117
-27 -147 -28 -355 l0 -227 -65 -3 c-36 -2 -69 0 -75 5 -6 5 -10 95 -9 235 0
189 4 246 22 342 84 449 296 862 601 1173 192 197 353 313 596 432 161 79 276
121 444 162 181 44 267 52 501 48 184 -3 233 -7 338 -29z m-450 -254 c16 -21
15 -26 -6 -52 -14 -18 -34 -24 -107 -31 -267 -29 -583 -149 -805 -306 -123
-88 -364 -329 -453 -453 -90 -128 -193 -336 -246 -498 -37 -112 -47 -135 -68
-143 -34 -12 -63 5 -63 37 0 104 145 438 272 628 87 130 151 207 275 327 145
141 299 249 476 336 128 63 252 106 389 137 206 46 309 52 336 18z m336 12
c378 -59 713 -222 1005 -490 84 -77 231 -254 304 -364 110 -168 252 -513 245
-598 -3 -36 -4 -37 -43 -37 -38 0 -41 2 -52 40 -70 228 -102 306 -186 456
-262 466 -811 834 -1342 899 -49 6 -100 15 -112 20 -27 11 -30 45 -6 72 20 22
55 23 187 2z m-84 -227 c0 -10 5 -15 10 -12 6 3 10 17 10 31 0 33 19 30 31 -6
13 -35 25 -38 34 -10 7 22 13 24 33 11 11 -7 8 -17 -13 -50 -31 -47 -40 -50
-56 -19 -10 19 -12 19 -21 5 -19 -34 -43 -19 -55 34 -7 28 -10 56 -6 62 8 13
33 -21 33 -46z m-280 33 c0 -5 -7 -10 -15 -10 -21 0 -19 -9 6 -29 30 -24 18
-61 -20 -61 -16 0 -34 7 -41 15 -11 13 -8 15 21 16 31 0 32 1 11 9 -28 12 -38
36 -22 55 14 17 60 21 60 5z m-136 -46 c4 -19 10 -42 13 -50 3 -8 -1 -14 -11
-14 -18 0 -36 38 -36 76 0 38 27 29 34 -12z m290 17 c9 -15 -23 -36 -36 -23
-5 5 -7 15 -4 21 9 13 33 14 40 2z m-376 -50 c8 -23 11 -45 8 -48 -3 -4 -22 1
-41 10 l-35 17 6 -25 c5 -18 2 -25 -9 -25 -9 0 -21 18 -31 45 -18 54 -5 68 38
40 26 -17 26 -17 26 10 0 39 21 26 38 -24z m707 18 c0 -15 7 -25 18 -27 10 -2
17 3 17 12 0 18 16 30 29 21 12 -7 -21 -107 -34 -106 -6 1 -10 11 -10 23 0 27
-25 36 -37 14 -25 -44 -38 4 -17 63 13 36 34 36 34 0z m-876 -64 c40 -46 40
-58 -3 -50 -28 6 -34 4 -39 -14 -10 -41 -27 -21 -27 32 0 80 19 88 69 32z
m1069 -43 c3 -61 -10 -84 -23 -42 -6 20 -20 25 -62 21 -13 -1 -23 4 -22 11 0
17 79 80 93 75 6 -2 12 -31 14 -65z m-1193 -22 c10 -22 16 -43 13 -45 -3 -3
-19 2 -36 12 -34 19 -52 12 -32 -12 9 -11 10 -19 2 -27 -15 -15 -29 -3 -52 42
-21 42 -14 58 19 40 29 -15 41 -12 41 8 0 21 9 34 20 27 3 -2 15 -22 25 -45z
m1335 5 c0 -8 -8 -15 -19 -15 -11 0 -23 -12 -31 -30 -7 -16 -19 -30 -26 -30
-18 0 -18 3 6 50 11 21 17 46 13 55 -5 16 -4 16 26 1 17 -9 31 -23 31 -31z
m-488 -21 c364 -68 692 -313 856 -639 203 -405 162 -922 -102 -1268 l-26 -34
112 28 c231 58 405 79 664 79 199 0 326 -10 507 -40 215 -36 294 -72 345 -159
l27 -46 3 -513 c3 -555 4 -540 -49 -511 -35 18 -209 66 -312 86 -75 14 -147
18 -387 17 -340 0 -295 6 -976 -129 -503 -100 -630 -117 -904 -117 -269 -1
-437 21 -875 115 -221 48 -489 98 -640 119 -56 8 -196 13 -375 13 -315 0 -400
-11 -598 -75 -51 -16 -99 -30 -106 -30 -21 0 -26 115 -26 565 0 466 2 484 69
553 46 48 107 72 251 101 349 69 717 70 1077 0 58 -11 106 -19 107 -17 2 2 14
35 27 74 24 68 25 73 9 95 -35 49 -90 211 -106 311 -24 150 -15 401 18 523 90
325 315 618 590 770 80 43 260 111 336 125 162 31 333 32 484 4z m-1051 -50
c-12 -8 -21 -24 -21 -35 0 -14 7 -19 30 -19 34 0 41 23 13 39 -16 9 -16 10 4
11 20 0 53 -23 53 -37 0 -20 -37 -43 -70 -43 -43 0 -60 14 -60 51 0 20 9 32
33 46 36 22 51 10 18 -13z m1644 -28 c-10 -62 -16 -77 -28 -73 -7 2 -11 20
-11 40 l1 36 -26 -19 c-38 -26 -64 -11 -36 21 24 26 74 49 93 42 10 -4 12 -17
7 -47z m145 -36 c23 -23 25 -41 8 -58 -17 -17 -28 -15 -28 7 0 11 -5 23 -12
27 -8 5 -9 2 -5 -10 8 -21 -18 -33 -37 -16 -12 9 -17 7 -26 -9 -14 -28 -32
-27 -28 2 2 12 13 26 26 32 12 5 25 18 28 27 7 24 49 23 74 -2z m-1870 -35
c29 -30 32 -37 20 -45 -11 -8 -23 -1 -47 25 -58 61 -31 80 27 20z m-77 -49
c27 -35 34 -56 18 -56 -11 0 -71 67 -71 80 0 21 26 8 53 -24z m2027 3 c0 -7 7
-17 15 -23 22 -17 8 -56 -21 -56 -13 0 -27 7 -32 16 -8 15 -11 14 -25 -6 -8
-12 -21 -20 -27 -18 -8 2 3 22 26 50 38 45 64 60 64 37z m-2209 -169 c38 -21
12 -79 -31 -65 -22 7 -27 44 -8 63 15 15 15 15 39 2z m2376 -16 c9 -24 -10
-49 -38 -49 -24 0 -36 23 -25 51 7 19 55 18 63 -2z m-2457 -99 c14 -17 5 -51
-15 -59 -39 -15 -72 37 -39 61 23 17 39 17 54 -2z m2554 -8 c9 -15 7 -22 -13
-38 -28 -23 -32 -23 -56 -5 -17 12 -18 17 -7 41 9 20 18 26 39 23 14 -2 31
-11 37 -21z m-2619 -98 c4 -5 4 -21 1 -35 -5 -20 -12 -25 -34 -22 -27 3 -39
25 -28 54 6 16 52 19 61 3z m2685 -24 c0 -33 -46 -47 -66 -20 -18 25 -1 45 37
45 24 0 29 -4 29 -25z m-2743 -99 c24 -20 25 -26 14 -40 -18 -21 -25 -20 -58
8 -24 20 -25 26 -14 40 18 21 25 20 58 -8z m2798 -6 c0 -8 -15 -18 -32 -24
-18 -5 -33 -15 -33 -22 0 -8 -4 -14 -10 -14 -5 0 -10 6 -10 14 0 8 -2 21 -5
29 -4 9 5 17 27 25 42 13 63 11 63 -8z m-2847 -107 c14 -27 3 -43 -28 -43 -36
0 -57 24 -40 45 17 20 57 19 68 -2z m2889 1 c8 -22 -24 -46 -56 -42 -35 4 -37
24 -4 42 37 20 52 20 60 0z m-4177 -77 c8 -7 54 -54 103 -104 95 -99 108 -132
67 -173 -40 -40 -66 -28 -177 83 -114 114 -121 131 -74 178 31 31 57 36 81 16z
m5479 -13 c53 -44 44 -66 -67 -175 -103 -102 -125 -115 -164 -100 -29 11 -54
62 -41 84 4 8 51 60 104 116 61 64 104 101 117 101 11 0 34 -12 51 -26z
m-4161 -66 c16 -16 15 -73 0 -85 -41 -31 -88 -9 -88 41 0 42 60 72 88 44z
m2842 -3 c7 -8 13 -26 13 -40 0 -35 -20 -55 -54 -55 -42 0 -68 67 -37 98 17
17 63 15 78 -3z m-2972 -117 c17 -17 15 -87 -3 -139 -24 -68 -34 -118 -24
-125 5 -3 9 2 9 11 0 8 19 36 42 61 38 41 45 45 82 42 33 -2 42 -7 44 -25 5
-35 -52 -90 -115 -110 -61 -19 -66 -27 -78 -110 -6 -48 -5 -53 12 -53 11 0 26
11 33 25 25 47 113 71 145 39 14 -15 14 -19 -3 -48 -24 -41 -63 -59 -129 -59
-60 0 -64 -8 -38 -82 19 -51 19 -65 1 -65 -22 0 -44 37 -57 97 -11 47 -15 53
-38 53 -39 1 -105 34 -129 65 -12 15 -22 30 -22 34 1 17 19 31 48 37 28 6 37
1 78 -40 26 -25 49 -46 51 -46 1 0 3 27 3 60 0 58 -1 60 -34 74 -45 19 -78 68
-84 126 -3 37 -1 48 12 53 43 17 106 -47 106 -107 0 -22 3 -27 11 -19 12 12
14 61 4 150 -6 50 -4 68 9 88 18 27 45 32 64 13z m3091 -20 c12 -21 13 -39 5
-98 -5 -39 -7 -92 -4 -118 6 -45 7 -46 14 -17 25 98 79 152 122 121 40 -30
-14 -144 -82 -172 -34 -14 -34 -15 -34 -82 l0 -67 35 42 c41 48 93 70 125 53
59 -32 -36 -129 -127 -130 -25 0 -33 -4 -33 -18 0 -36 -31 -123 -46 -129 -28
-11 -36 12 -20 52 9 21 16 50 16 66 0 28 -1 29 -52 29 -61 0 -112 26 -130 65
-16 35 4 55 54 55 32 0 45 -7 78 -40 49 -50 63 -51 55 -5 -3 19 -7 50 -10 69
-5 30 -11 35 -64 55 -115 42 -158 141 -61 141 30 -1 60 -24 94 -75 l26 -38 0
31 c0 17 -9 51 -20 77 -11 26 -20 66 -20 90 0 73 48 99 79 43z m-4144 -303
c29 -28 32 -64 8 -94 -14 -16 -44 -26 -121 -41 -56 -11 -118 -20 -137 -20 -40
0 -75 29 -75 61 0 28 53 79 82 79 13 0 52 9 88 19 91 27 126 26 155 -4z m5282
5 c147 -34 176 -57 159 -125 -11 -44 -35 -48 -163 -25 -65 12 -126 26 -136 31
-56 30 -33 139 29 139 12 0 62 -9 111 -20z m-5461 -1310 c0 -278 4 -403 12
-422 21 -51 90 -114 155 -143 80 -37 197 -45 280 -21 45 13 57 21 57 37 0 23
-41 43 -110 53 -57 8 -81 22 -61 35 25 16 295 61 365 61 l36 0 0 -104 c0 -91
-2 -105 -17 -110 -10 -3 -117 -31 -238 -61 -309 -79 -450 -120 -602 -176 -138
-52 -162 -56 -181 -37 -25 25 -23 31 149 549 33 98 59 184 59 193 0 8 -47 92
-105 186 -58 94 -114 188 -125 209 -18 36 -18 39 -2 53 9 9 37 23 62 32 63 23
232 66 250 63 13 -2 15 -54 16 -397z m5638 364 c133 -36 173 -54 183 -79 5
-14 -31 -78 -168 -301 -38 -62 -69 -120 -69 -129 0 -9 50 -170 112 -356 145
-440 146 -439 -84 -355 -149 53 -335 108 -625 182 -120 30 -222 59 -228 64 -6
5 -9 49 -7 110 l3 102 72 -6 c150 -14 327 -50 327 -67 0 -9 -52 -26 -107 -35
-86 -13 -97 -53 -21 -76 24 -7 84 -12 133 -12 148 1 253 55 299 154 20 43 21
64 24 443 2 278 7 397 14 397 6 0 70 -16 142 -36z m-1334 -823 c-110 -138
-381 -337 -615 -451 -280 -136 -561 -206 -877 -217 -262 -9 -482 21 -723 97
-293 93 -632 296 -823 493 -35 36 -40 45 -27 51 11 4 14 2 9 -7 -5 -8 -2 -7 9
2 10 8 20 11 24 8 3 -3 20 0 38 7 39 16 43 14 229 -109 393 -259 792 -390
1186 -387 449 2 849 141 1318 458 69 46 106 65 140 70 26 3 63 9 82 13 58 12
60 9 30 -28z m-3000 5 c0 -8 -4 -17 -8 -20 -4 -2 -8 4 -8 15 0 10 4 19 8 19 4
0 8 -6 8 -14z m924 -266 c28 -10 34 -38 14 -58 -19 -19 -63 -14 -84 9 -19 21
-18 21 5 40 27 22 31 22 65 9z m1110 -16 c4 -10 -1 -25 -11 -36 -34 -38 -116
-3 -84 36 18 22 87 21 95 0z m-203 -33 c34 -28 16 -56 -37 -56 -32 0 -40 4
-42 22 -2 13 5 27 20 37 28 20 31 20 59 -3z m-717 -7 c20 -19 20 -28 2 -43
-34 -28 -97 5 -83 43 8 21 60 21 81 0z m174 -16 c32 -32 -18 -87 -53 -58 -28
23 -12 70 25 70 9 0 21 -5 28 -12z m356 6 c20 -8 21 -38 2 -53 -8 -7 -27 -11
-43 -9 -21 2 -29 9 -31 27 -5 34 30 51 72 35z m-169 -39 c0 -27 -3 -30 -34
-30 -41 0 -62 25 -41 50 8 10 25 15 44 13 27 -3 31 -7 31 -33z m-1621 -260
c24 -19 51 -50 60 -68 17 -30 17 -35 3 -70 -26 -61 -82 -69 -141 -20 l-29 24
-22 -27 -21 -27 -22 28 c-18 22 -19 30 -9 44 15 22 131 150 135 151 2 0 23
-16 46 -35z m3188 -56 c-16 -15 -38 -32 -48 -37 -18 -10 -18 -12 -2 -28 16
-16 19 -16 53 10 20 15 43 25 50 22 25 -9 17 -43 -15 -66 -16 -12 -30 -26 -30
-31 0 -24 32 -18 69 12 34 27 43 30 56 19 24 -20 18 -32 -34 -72 -60 -47 -103
-67 -108 -52 -2 6 -31 47 -63 90 -33 44 -60 82 -60 86 0 4 28 30 62 57 59 48
63 50 81 33 18 -16 18 -17 -11 -43z m-2861 -142 c77 -51 87 -140 23 -196 -83
-73 -214 -7 -214 109 0 34 6 48 34 76 28 28 41 34 79 34 29 0 55 -8 78 -23z
m2646 -19 c17 -16 23 -33 23 -65 0 -38 4 -46 31 -62 l31 -19 -28 -15 c-25 -13
-32 -13 -61 1 -39 19 -50 11 -35 -23 10 -22 9 -26 -19 -40 l-30 -16 -49 103
c-27 57 -50 107 -50 111 0 4 24 19 53 33 59 28 98 26 134 -8z m-2362 -119 c99
-44 124 -113 64 -170 -28 -27 -31 -32 -20 -55 16 -36 14 -41 -17 -36 -22 3
-34 14 -50 48 -24 49 -47 57 -56 19 -8 -30 -16 -31 -45 -7 l-22 17 42 103 c23
56 45 102 49 102 4 0 29 -10 55 -21z m2081 -76 l84 -88 -31 -15 c-28 -13 -32
-13 -40 2 -9 16 -13 16 -57 -1 -32 -13 -48 -25 -50 -39 -2 -14 -13 -23 -33
-27 -17 -4 -32 -5 -34 -3 -4 3 11 166 20 215 5 28 16 37 48 42 5 0 46 -38 93
-86z m-321 -95 c15 -57 30 -108 32 -114 4 -11 -47 -27 -56 -18 -4 4 -61 204
-61 215 0 7 21 15 46 18 6 0 23 -45 39 -101z m-1395 50 c52 -27 58 -38 29 -56
-18 -11 -24 -11 -38 2 -23 21 -60 20 -83 -1 -22 -20 -23 -70 -1 -95 20 -22 69
-24 77 -3 3 10 -1 15 -12 15 -21 0 -42 19 -42 37 0 17 42 16 86 -2 35 -14 36
-16 29 -57 -9 -58 -28 -71 -93 -65 -132 10 -181 176 -68 231 42 21 64 20 116
-6z m1208 -21 c3 -23 -1 -27 -21 -27 -13 0 -26 -2 -29 -5 -3 -3 2 -39 10 -80
17 -85 13 -105 -22 -105 -22 0 -25 6 -35 63 -6 35 -11 74 -11 86 0 20 -4 22
-42 19 -40 -3 -43 -1 -43 21 0 23 6 26 85 42 47 9 90 16 95 14 6 -1 11 -14 13
-28z m-867 -94 c15 -38 36 -92 48 -120 l21 -53 -39 0 c-30 0 -40 4 -44 19 -6
24 -96 36 -113 14 -13 -15 -50 -18 -58 -4 -4 5 17 55 46 110 49 93 55 101 83
101 28 0 32 -5 56 -67z m285 -5 l64 -61 0 61 c0 62 0 62 29 62 29 0 29 -1 36
-72 8 -93 3 -160 -12 -166 -7 -2 -42 24 -78 59 l-65 62 0 -61 0 -62 -35 0 -35
0 0 120 c0 145 3 147 96 58z"/>
<path d="M5675 6810 c-3 -5 -1 -10 4 -10 6 0 11 5 11 10 0 6 -2 10 -4 10 -3 0
-8 -4 -11 -10z"/>
<path d="M4182 5665 c0 -16 2 -22 5 -12 2 9 2 23 0 30 -3 6 -5 -1 -5 -18z"/>
<path d="M4181 5522 c-1 -162 36 -302 119 -442 17 -28 30 -57 30 -63 0 -7 -27
-85 -61 -173 -78 -205 -76 -198 -53 -191 71 22 347 87 367 87 13 0 74 -23 137
-51 155 -69 238 -89 395 -96 101 -4 150 -2 215 11 296 60 552 252 684 513 28
56 33 78 14 67 -7 -4 -8 -3 -4 5 4 6 11 9 16 6 10 -6 21 35 12 49 -4 6 -7 22
-7 36 0 23 -3 25 -51 25 -38 0 -50 3 -47 12 6 15 23 17 23 3 0 -16 17 -11 24
7 4 9 2 21 -4 27 -8 8 -9 6 -4 -8 6 -16 4 -18 -10 -13 -10 4 -26 3 -35 -3 -13
-6 -24 -5 -37 5 -23 17 -34 19 -34 5 0 -5 7 -10 15 -10 8 0 15 -4 15 -10 0 -5
-3 -10 -7 -10 -12 0 -98 43 -104 52 -3 5 -13 6 -21 3 -19 -7 -30 -42 -17 -51
5 -3 8 -13 8 -22 -1 -15 -2 -15 -6 1 -2 9 -8 15 -13 12 -5 -3 -12 0 -16 6 -4
7 -3 9 2 6 6 -3 11 6 12 19 1 15 -2 23 -8 19 -6 -4 -8 -10 -5 -15 3 -5 1 -11
-5 -15 -7 -4 -6 -13 1 -27 15 -29 5 -107 -21 -157 -61 -120 -271 -147 -482
-61 -127 52 -225 118 -338 230 -59 58 -117 119 -129 135 -13 19 -19 23 -15 10
5 -13 -4 -8 -24 15 -17 19 -31 30 -32 24 0 -19 68 -85 73 -71 4 9 6 9 6 0 2
-26 1 -28 -11 -28 -15 -1 -38 19 -38 32 0 5 -10 17 -21 27 -21 18 -22 18 -15
-8 8 -33 -1 -34 -14 -1 -10 26 -30 34 -30 13 0 -7 -5 -5 -11 5 -12 21 -29 22
-29 2 0 -8 -5 -15 -11 -15 -7 0 -9 10 -7 25 5 26 -6 35 -15 13 -5 -11 -11 15
-9 33 2 14 -50 20 -64 8 -12 -10 -13 -9 -8 5 6 15 2 17 -30 10 -27 -5 -40 -2
-49 9 -16 19 -77 28 -77 11 0 -7 12 -15 28 -17 l27 -4 -27 -2 c-18 0 -31 6
-38 19 -14 26 -65 27 -79 3 -10 -17 -10 -16 -11 2 l-1 20 -9 -20 c-7 -18 -8
-17 -15 10 -4 17 -8 35 -10 40 -2 6 -4 -36 -4 -93z m114 38 c3 -5 -1 -10 -10
-10 -9 0 -13 5 -10 10 3 6 8 10 10 10 2 0 7 -4 10 -10z m514 -193 c8 -10 7
-14 -2 -14 -8 0 -14 6 -14 14 0 7 1 13 2 13 2 0 8 -6 14 -13z m966 -27 c3 -5
1 -10 -4 -10 -6 0 -11 5 -11 10 0 6 2 10 4 10 3 0 8 -4 11 -10z m248 -75 c-3
-9 -8 -14 -10 -11 -3 3 -2 9 2 15 9 16 15 13 8 -4z"/>
<path d="M4960 5543 c81 -96 198 -185 306 -234 36 -16 67 -29 69 -29 1 0 5 20
8 44 9 62 26 94 58 108 18 8 24 15 16 20 -7 4 -25 -6 -44 -24 -28 -27 -31 -28
-26 -9 7 29 -20 28 -35 -1 -11 -22 -11 -22 -6 3 4 21 1 27 -15 32 -12 3 -21 1
-21 -4 0 -17 -17 -9 -28 14 -6 12 -11 16 -11 9 -1 -7 11 -24 27 -39 l27 -25
-40 6 c-22 3 -43 5 -47 6 -4 0 -5 7 -2 15 5 11 -3 17 -25 21 -21 5 -37 16 -47
35 -8 16 -17 29 -20 29 -2 0 0 -9 6 -20 11 -20 2 -27 -15 -11 -16 15 -59 25
-51 12 15 -23 -35 -4 -51 20 -17 24 -52 59 -61 59 -2 0 10 -17 28 -37z m136
-68 c9 -8 11 -15 6 -15 -5 0 -15 7 -22 15 -7 8 -9 15 -6 15 4 0 14 -7 22 -15z
m5 -45 c6 0 7 6 3 13 -4 6 -3 8 1 4 5 -4 10 -15 11 -23 2 -13 0 -14 -19 -1
-11 7 -23 20 -25 28 -2 8 2 6 8 -3 6 -10 16 -18 21 -18z m79 -4 c0 -2 -7 -7
-16 -10 -8 -3 -12 -2 -9 4 6 10 25 14 25 6z m7 -23 c-4 -3 -2 -12 4 -19 7 -8
6 -14 -2 -20 -8 -4 -9 -3 -5 5 4 6 0 14 -9 17 -13 6 -14 8 -3 15 16 10 24 12
15 2z"/>
<path d="M4690 5533 c0 -6 9 -21 21 -34 l20 -24 -17 30 c-24 39 -24 40 -24 28z"/>
<path d="M5195 5470 c3 -5 8 -10 11 -10 2 0 4 5 4 10 0 6 -5 10 -11 10 -5 0
-7 -4 -4 -10z"/>
<path d="M5535 5416 c72 -25 103 -32 110 -24 7 7 6 9 -1 5 -7 -4 -34 3 -60 15
-27 13 -56 23 -64 24 -8 1 -31 5 -50 9 -19 4 10 -9 65 -29z"/>
<path d="M5660 5379 c0 -11 40 -42 46 -36 4 4 -1 9 -10 13 -21 8 -21 21 2 27
9 3 5 4 -10 4 -16 -1 -28 -4 -28 -8z"/>
<path d="M5916 5347 c3 -10 9 -15 12 -12 3 3 0 11 -7 18 -10 9 -11 8 -5 -6z"/>
<path d="M6062 5285 c-14 -31 -15 -35 -3 -35 9 0 25 49 18 56 -2 2 -9 -7 -15
-21z"/>
<path d="M3222 4608 c-8 -8 -12 -63 -12 -183 0 -151 2 -174 18 -187 12 -12 46
-17 122 -19 l105 -4 0 39 c0 46 -9 53 -87 61 l-58 6 0 139 c0 127 -2 140 -19
150 -26 13 -54 13 -69 -2z"/>
<path d="M2993 4601 c-35 -3 -69 -13 -77 -21 -12 -12 -16 -48 -17 -181 -1 -92
1 -172 5 -178 9 -14 51 -14 77 -1 15 9 19 22 19 69 0 66 6 71 87 71 46 0 63
17 63 65 0 26 -1 26 -62 25 -92 -2 -90 -3 -86 28 3 26 6 27 88 37 l85 10 0 40
0 40 -60 1 c-33 1 -88 -1 -122 -5z"/>
<path d="M7109 4587 c-6 -14 -9 -37 -5 -51 5 -22 14 -26 56 -32 l50 -7 0 -139
0 -138 27 -11 c15 -5 38 -8 50 -4 23 5 23 8 23 140 l0 135 45 0 c25 0 45 3 46
8 0 4 2 17 3 28 6 51 -8 61 -96 73 -198 25 -186 26 -199 -2z"/>
<path d="M6886 4578 c-8 -13 -45 -97 -81 -187 -63 -155 -66 -166 -49 -178 28
-21 63 -15 90 14 21 23 35 28 91 31 60 4 67 3 90 -22 18 -20 33 -26 55 -24 57
6 57 26 1 145 -28 59 -61 133 -74 163 -30 74 -36 80 -75 80 -24 0 -38 -7 -48
-22z m84 -215 c0 -8 -13 -13 -35 -13 -40 0 -42 5 -18 55 l17 36 18 -33 c9 -18
17 -39 18 -45z"/>
<path d="M6616 4567 c-16 -12 -19 -25 -17 -80 2 -75 -4 -83 -79 -88 l-45 -4
-3 68 -3 67 -30 0 c-17 0 -39 -5 -50 -10 -18 -10 -19 -23 -19 -193 0 -129 4
-187 12 -195 19 -19 53 -14 77 12 18 19 22 34 21 72 -1 27 -1 54 -1 61 1 9 79
33 106 33 3 0 5 -22 5 -49 0 -27 3 -56 6 -65 8 -20 67 -22 83 -2 8 9 11 70 9
197 l-3 184 -25 3 c-14 2 -34 -3 -44 -11z"/>
<path d="M3561 4538 c-62 -32 -84 -66 -89 -136 -7 -95 44 -172 143 -218 63
-30 110 -30 165 -1 74 39 108 137 75 219 -37 95 -102 145 -199 155 -40 3 -60
0 -95 -19z m157 -106 c24 -16 52 -61 52 -86 0 -8 -12 -28 -26 -45 -35 -42 -81
-42 -127 -1 -97 84 -7 202 101 132z"/>
<path d="M3942 4478 c-9 -9 -12 -62 -12 -189 0 -194 1 -196 61 -201 34 -3 34
-3 37 45 3 41 6 47 25 47 17 0 27 -13 46 -55 28 -64 71 -105 111 -105 43 0 43
23 -2 85 l-40 57 32 26 c60 51 51 152 -20 216 -54 48 -214 98 -238 74z m168
-137 c29 -21 37 -53 18 -69 -10 -8 -25 -8 -56 0 -41 10 -42 11 -42 54 0 43 1
44 28 38 15 -3 38 -14 52 -23z"/>
<path d="M6167 4468 c-47 -13 -133 -89 -154 -137 -19 -46 -20 -139 0 -177 55
-105 187 -121 278 -34 22 20 39 42 39 48 0 6 -16 23 -35 38 l-35 26 -26 -31
c-73 -87 -175 16 -113 115 23 39 85 62 118 45 15 -9 24 -3 50 30 38 46 32 62
-28 79 -41 11 -43 11 -94 -2z"/>
<path d="M4332 4378 c-14 -14 -17 -354 -4 -375 11 -17 59 -34 77 -27 13 5 15
36 15 198 l0 193 -25 11 c-33 15 -48 15 -63 0z"/>
<path d="M5607 4326 c-67 -24 -97 -66 -97 -134 0 -54 24 -79 95 -100 46 -14
60 -23 60 -37 0 -29 -45 -41 -83 -23 -29 15 -31 15 -56 -11 -33 -34 -33 -44 0
-70 56 -44 195 -13 235 53 47 77 8 155 -91 180 -58 14 -76 37 -42 55 13 7 26
6 45 -4 26 -13 28 -12 58 31 l30 44 -35 15 c-43 18 -69 18 -119 1z"/>
<path d="M4632 4308 c-21 -26 -142 -301 -142 -324 0 -35 55 -48 92 -22 24 16
38 18 98 12 66 -6 71 -9 91 -40 18 -29 26 -34 59 -34 53 0 59 23 22 97 -16 32
-51 113 -77 181 -47 118 -50 122 -84 132 -46 13 -46 12 -59 -2z m88 -235 c0
-15 -48 -17 -69 -4 -12 8 -12 16 4 57 l18 47 23 -44 c13 -24 23 -50 24 -56z"/>
<path d="M5347 4293 c-4 -3 -7 -28 -7 -55 0 -45 2 -48 25 -48 14 0 25 -5 25
-11 0 -6 -11 -20 -25 -31 -29 -22 -31 -33 -10 -42 35 -13 78 40 90 111 5 34 3
45 -14 62 -20 20 -70 28 -84 14z"/>
<path d="M4947 4284 c-4 -4 -7 -92 -7 -196 l0 -188 25 -12 c19 -8 31 -8 50 0
24 11 25 16 25 92 0 44 3 80 8 80 4 0 22 -20 39 -43 60 -78 121 -137 141 -137
43 0 52 24 52 143 0 62 -3 143 -7 180 -5 59 -9 70 -30 80 -17 7 -30 7 -48 -1
l-26 -12 6 -102 6 -103 -35 40 c-20 22 -57 72 -84 110 -39 57 -54 71 -78 73
-16 2 -33 0 -37 -4z"/>
<path d="M3750 3972 c0 -4 10 -9 22 -9 18 -2 20 0 8 7 -18 12 -30 13 -30 2z"/>
<path d="M6437 3973 c-4 -3 -7 -13 -7 -22 1 -14 2 -13 11 2 10 17 30 24 28 10
-1 -5 -1 -15 0 -23 1 -13 3 -13 10 -1 18 28 -19 58 -42 34z"/>
<path d="M3748 3922 c-6 -39 0 -52 23 -52 11 0 17 5 14 10 -4 6 -10 8 -14 6
-3 -3 -7 3 -7 13 0 13 7 17 26 15 17 -2 19 -2 5 2 -11 3 -25 12 -31 20 -10 12
-12 9 -16 -14z"/>
<path d="M3870 3940 c0 -5 5 -10 11 -10 5 0 7 5 4 10 -3 6 -8 10 -11 10 -2 0
-4 -4 -4 -10z"/>
<path d="M4010 3901 c20 -5 26 -14 28 -44 3 -39 22 -42 22 -4 -1 32 -24 57
-51 56 l-24 -1 25 -7z"/>
<path d="M4070 3890 c8 -5 22 -10 30 -10 13 0 13 1 0 10 -8 5 -22 10 -30 10
-13 0 -13 -1 0 -10z"/>
<path d="M6267 3879 c6 -6 9 -17 7 -24 -3 -7 -1 -16 5 -20 6 -3 11 0 11 9 0
23 -11 46 -23 46 -8 0 -8 -3 0 -11z"/>
<path d="M4231 3818 c9 -8 19 -22 22 -33 4 -18 5 -18 6 2 1 14 -7 26 -21 33
-20 10 -21 9 -7 -2z"/>
<path d="M5810 3811 c0 -5 5 -13 10 -16 6 -3 10 -2 10 4 0 5 -4 13 -10 16 -5
3 -10 2 -10 -4z"/>
<path d="M4203 3790 c2 -8 12 -16 23 -17 13 -2 15 -1 4 4 -8 3 -19 11 -23 17
-6 7 -7 6 -4 -4z"/>
<path d="M4550 3782 c-18 -14 -21 -25 -17 -44 4 -14 14 -28 22 -32 20 -7 20
18 0 34 -8 7 -15 18 -15 24 0 6 5 4 10 -4 8 -13 10 -12 10 4 0 11 3 16 6 13 4
-3 15 -2 25 3 13 8 20 6 28 -7 6 -10 11 -13 11 -7 0 15 -22 34 -41 34 -9 0
-27 -8 -39 -18z"/>
<path d="M5616 3774 c-7 -18 -8 -80 -2 -73 2 2 6 20 8 39 3 26 10 36 29 41
l24 7 -26 1 c-16 1 -29 -5 -33 -15z"/>
<path d="M4371 3754 c0 -11 3 -14 6 -6 3 7 2 16 -1 19 -3 4 -6 -2 -5 -13z"/>
<path d="M5468 3759 c-21 -12 -24 -49 -6 -67 26 -26 88 -11 88 22 -1 46 -42
69 -82 45z m66 -22 c9 -15 7 -21 -9 -33 -27 -20 -49 -14 -53 15 -6 41 40 54
62 18z"/>
<path d="M5066 3725 c-4 -20 -4 -39 -1 -44 3 -5 0 -12 -5 -14 -6 -3 -6 -5 1
-3 6 1 17 16 25 34 8 19 9 30 3 26 -7 -4 -9 1 -4 15 3 11 2 21 -3 21 -5 0 -13
-16 -16 -35z"/>
<path d="M5669 3747 c-8 -7 -21 -11 -29 -9 -8 3 -4 -4 10 -16 14 -11 27 -18
30 -16 2 3 -2 9 -9 13 -11 7 -10 11 5 19 10 6 16 13 13 17 -4 3 -13 0 -20 -8z"/>
<path d="M4716 3713 l-17 -36 23 15 c27 17 48 13 48 -9 0 -9 2 -14 5 -11 8 8
-7 68 -17 68 -6 0 -8 -6 -5 -13 3 -8 -1 -14 -9 -14 -9 0 -12 7 -8 19 9 30 -1
20 -20 -19z"/>
<path d="M5166 3732 c-3 -5 1 -9 9 -9 8 0 12 4 9 9 -3 4 -7 8 -9 8 -2 0 -6 -4
-9 -8z"/>
<path d="M4600 3720 c0 -5 7 -7 15 -4 8 4 15 8 15 10 0 2 -7 4 -15 4 -8 0 -15
-4 -15 -10z"/>
<path d="M4600 3700 c-23 -7 -23 -8 -3 -9 12 -1 25 4 28 9 3 6 5 10 3 9 -2 -1
-14 -5 -28 -9z"/>
<path d="M5147 3703 c-4 -3 -7 -13 -7 -22 1 -13 3 -13 11 2 11 19 8 33 -4 20z"/>
<path d="M3502 2888 c-18 -18 -15 -43 8 -63 40 -36 77 10 40 51 -27 27 -31 29
-48 12z"/>
<path d="M3766 2688 c-36 -50 -4 -108 58 -108 62 0 86 61 41 105 -31 32 -78
33 -99 3z"/>
<path d="M6432 2692 c-9 -6 -11 -18 -6 -36 9 -37 23 -42 47 -17 17 17 19 25
11 39 -13 20 -34 25 -52 14z"/>
<path d="M4129 2533 c-8 -22 -7 -30 7 -40 21 -16 50 -17 59 -3 11 18 -4 46
-30 58 -23 11 -27 9 -36 -15z"/>
<path d="M6160 2513 c0 -26 4 -33 20 -33 25 0 25 8 0 40 l-20 25 0 -32z"/>
<path d="M4796 2343 c-3 -10 -9 -24 -12 -30 -4 -9 4 -13 25 -13 29 0 30 1 20
30 -12 34 -24 38 -33 13z"/>
<path d="M10105 10230 c-3 -5 -2 -10 4 -10 5 0 13 5 16 10 3 6 2 10 -4 10 -5
0 -13 -4 -16 -10z"/>
<path d="M10150 10236 c0 -2 9 -6 20 -9 11 -3 20 -1 20 4 0 5 -9 9 -20 9 -11
0 -20 -2 -20 -4z"/>
</g>
</svg>
